<svg xmlns="http://www.w3.org/2000/svg" width="27" height="30" viewBox="0 0 27 30"><path d="M179.57,79A2.43,2.43,0,0,1,182,81.43V97.57a2.43,2.43,0,0,1-2.43,2.43H159.43A2.43,2.43,0,0,1,157,97.57V81.43A2.43,2.43,0,0,1,159.43,79h20.14m0-1H159.43A3.44,3.44,0,0,0,156,81.43V97.57a3.44,3.44,0,0,0,3.43,3.43h20.14A3.44,3.44,0,0,0,183,97.57V81.43A3.44,3.44,0,0,0,179.57,78Z" transform="translate(-156 -71)"/><path d="M175.83,90H163.17A6.17,6.17,0,0,1,157,84h-1a7.19,7.19,0,0,0,7.16,7h12.66A7.19,7.19,0,0,0,183,84h-1A6.17,6.17,0,0,1,175.83,90Z" transform="translate(-156 -71)"/><path d="M170.06,89a.94.94,0,0,1,.94.94v1.12a.94.94,0,0,1-.94.94h-1.12a.94.94,0,0,1-.94-.94V89.94a.94.94,0,0,1,.94-.94h1.12m0-1h-1.12A1.94,1.94,0,0,0,167,89.94v1.12A1.94,1.94,0,0,0,168.94,93h1.12A1.94,1.94,0,0,0,172,91.06V89.94A1.94,1.94,0,0,0,170.06,88Z" transform="translate(-156 -71)"/><path d="M170.13,72h-1.26A6.88,6.88,0,0,0,162,78.87V79h15v-.13A6.88,6.88,0,0,0,170.13,72Z" transform="translate(-156 -71)" fill="none"/><path d="M162,78.87A6.88,6.88,0,0,1,168.87,72h1.26A6.88,6.88,0,0,1,177,78.87V79h1v-.13A7.89,7.89,0,0,0,170.13,71h-1.26A7.89,7.89,0,0,0,161,78.87V79h1Z" transform="translate(-156 -71)"/></svg>