<svg xmlns="http://www.w3.org/2000/svg" width="27" height="18" viewBox="0 0 27 18"><path d="M181.23,135H157.77a1.78,1.78,0,0,0-1.77,1.77v14.46a1.78,1.78,0,0,0,1.77,1.77h23.46a1.78,1.78,0,0,0,1.77-1.77V136.77A1.78,1.78,0,0,0,181.23,135Zm-6.61,9,7.36-7.37s0,.07,0,.11v14.46a.8.8,0,0,1,0,.15Zm6.61-8-10,10h-3.75l-9.95-9.95a.6.6,0,0,1,.24-.05ZM157,151.05V136.94l7.06,7.05Zm.51.9,7.25-7.25,2.13,2.13a.5.5,0,0,0,.37.17h4.16a.58.58,0,0,0,.19,0,.52.52,0,0,0,.19-.11l2.11-2.12,7.27,7.27H157.77A.75.75,0,0,1,157.51,152Z" transform="translate(-156 -135)"/></svg>