<svg xmlns="http://www.w3.org/2000/svg" width="24" height="30" viewBox="0 0 24 30"><path d="M281.42,72A1.58,1.58,0,0,1,283,73.58V98.42a1.58,1.58,0,0,1-1.58,1.58H262.58A1.58,1.58,0,0,1,261,98.42V73.58A1.58,1.58,0,0,1,262.58,72h18.84m0-1H262.58A2.59,2.59,0,0,0,260,73.58V98.42a2.59,2.59,0,0,0,2.58,2.58h18.84A2.59,2.59,0,0,0,284,98.42V73.58A2.59,2.59,0,0,0,281.42,71Z" transform="translate(-260 -71)"/><polygon points="4 3 3 3 3 4 4 4 4 3 4 3"/><polygon points="21 3 20 3 20 4 21 4 21 3 21 3"/><polygon points="4 26 3 26 3 27 4 27 4 26 4 26"/><polygon points="21 26 20 26 20 27 21 27 21 26 21 26"/><path d="M272,84a2,2,0,1,1-2,2,2,2,0,0,1,2-2m0-1a3,3,0,1,0,3,3,3,3,0,0,0-3-3Z" transform="translate(-260 -71)"/><path d="M272,80a6,6,0,1,0,5.91,7H276V85h1.91A6,6,0,0,0,272,80Z" transform="translate(-260 -71)" fill="none"/><path d="M272,92a6,6,0,1,1,5.91-7h1a7,7,0,1,0,0,2h-1A6,6,0,0,1,272,92Z" transform="translate(-260 -71)"/><path d="M280,85a1,1,0,0,1,0,2h-5V85h5m0-1h-6v4h6a2,2,0,0,0,0-4Z" transform="translate(-260 -71)"/></svg>