<svg xmlns="http://www.w3.org/2000/svg" width="24" height="30" viewBox="0 0 24 30"><path d="M248.42,72A1.58,1.58,0,0,1,250,73.58V98.42a1.58,1.58,0,0,1-1.58,1.58H229.58A1.58,1.58,0,0,1,228,98.42V73.58A1.58,1.58,0,0,1,229.58,72h18.84m0-1H229.58A2.59,2.59,0,0,0,227,73.58V98.42a2.59,2.59,0,0,0,2.58,2.58h18.84A2.59,2.59,0,0,0,251,98.42V73.58A2.59,2.59,0,0,0,248.42,71Z" transform="translate(-227 -71)"/><polygon points="19 13 5 13 5 14 19 14 19 13 19 13"/><polygon points="19 16 5 16 5 17 19 17 19 16 19 16"/><polygon points="16 19 5 19 5 20 16 20 16 19 16 19"/><polygon points="9 22 5 22 5 23 9 23 9 22 9 22"/><path d="M245,78v3H233V78h12m1-1H232v5h14V77Z" transform="translate(-227 -71)"/></svg>