<svg xmlns="http://www.w3.org/2000/svg" width="37" height="18.74" viewBox="0 0 37 18.74"><path d="M195.66,81.13,211.92,86l.14,0h.15A1.79,1.79,0,0,1,214,87.81v3.38A1.79,1.79,0,0,1,212.21,93h-.15l-.14,0-16.26,4.85A1.81,1.81,0,0,1,194,96.08V82.92a1.81,1.81,0,0,1,1.66-1.79m.13-1A2.8,2.8,0,0,0,193,82.92V96.08a2.8,2.8,0,0,0,2.79,2.79L212.21,94A2.8,2.8,0,0,0,215,91.19V87.81A2.8,2.8,0,0,0,212.21,85l-16.42-4.89Z" transform="translate(-193 -80.13)"/><path d="M227.34,81.13A1.81,1.81,0,0,1,229,82.92V96.08a1.81,1.81,0,0,1-1.66,1.79L211.08,93l-.14,0h-.15A1.79,1.79,0,0,1,209,91.19V87.81A1.79,1.79,0,0,1,210.79,86h.15l.14,0,16.26-4.85m-.13-1L210.79,85A2.8,2.8,0,0,0,208,87.81v3.38A2.8,2.8,0,0,0,210.79,94l16.42,4.89A2.8,2.8,0,0,0,230,96.08V82.92a2.8,2.8,0,0,0-2.79-2.79Z" transform="translate(-193 -80.13)"/></svg>