<svg xmlns="http://www.w3.org/2000/svg" width="24" height="30" viewBox="0 0 24 30"><path d="M316.42,72A1.58,1.58,0,0,1,318,73.58V98.42a1.58,1.58,0,0,1-1.58,1.58H297.58A1.58,1.58,0,0,1,296,98.42V73.58A1.58,1.58,0,0,1,297.58,72h18.84m0-1H297.58A2.59,2.59,0,0,0,295,73.58V98.42a2.59,2.59,0,0,0,2.58,2.58h18.84A2.59,2.59,0,0,0,319,98.42V73.58A2.59,2.59,0,0,0,316.42,71Z" transform="translate(-295 -71)"/><path d="M306.7,87a.29.29,0,0,1,.3.3v.4a.29.29,0,0,1-.3.3H303V87h3.7m0-1H302v3h4.7a1.3,1.3,0,0,0,1.3-1.3v-.4a1.3,1.3,0,0,0-1.3-1.3Z" transform="translate(-295 -71)"/><path d="M303.83,74H319V73H303.83A1.83,1.83,0,0,0,302,74.83V101h1V74.83A.83.83,0,0,1,303.83,74Z" transform="translate(-295 -71)"/></svg>