<svg xmlns="http://www.w3.org/2000/svg" width="15" height="22" viewBox="0 0 15 22"><path d="M144.5,69a1.5,1.5,0,0,1,1.5,1.5v17a1.5,1.5,0,0,1-1.5,1.5h-10a1.5,1.5,0,0,1-1.5-1.5v-17a1.5,1.5,0,0,1,1.5-1.5h10m0-1h-10a2.51,2.51,0,0,0-2.5,2.5v17a2.51,2.51,0,0,0,2.5,2.5h10a2.5,2.5,0,0,0,2.5-2.5v-17a2.51,2.51,0,0,0-2.5-2.5Z" transform="translate(-132 -68)"/><polygon points="9 2 6 2 6 3 9 3 9 2 9 2"/><path d="M139.5,86a.5.5,0,1,1-.5.5.5.5,0,0,1,.5-.5m0-1a1.5,1.5,0,1,0,1.5,1.5,1.5,1.5,0,0,0-1.5-1.5Z" transform="translate(-132 -68)"/></svg>