<svg xmlns="http://www.w3.org/2000/svg" width="23" height="30" viewBox="0 0 23 30"><path d="M198.5,71A11.53,11.53,0,0,0,187,82.5v7a11.5,11.5,0,0,0,23,0v-7A11.53,11.53,0,0,0,198.5,71Zm0,1a10.49,10.49,0,0,1,8.56,4.44A2.76,2.76,0,0,1,206,77.77c-.79.61-3.75,2.48-8.83,1.14-4.86-1.28-7.77,2.23-9.15,4.64v-1A10.51,10.51,0,0,1,198.5,72Zm0,28A10.5,10.5,0,0,1,188,90.25a11.67,11.67,0,0,0,5,5.34c.32.18.66.34,1,.49V95.5a4,4,0,0,1,.05-.5,4.48,4.48,0,0,1,8.9,0,4,4,0,0,1,.05.5v.58c.34-.15.68-.31,1-.49a11.67,11.67,0,0,0,5-5.34A10.5,10.5,0,0,1,198.5,100ZM209,85.5a10.5,10.5,0,0,1-5.1,9,5.49,5.49,0,0,0-10.8,0A10.49,10.49,0,0,1,188,85.81c.33-.9,2.93-7.5,8.87-5.93,5.53,1.45,8.82-.64,9.7-1.32a5.05,5.05,0,0,0,1.1-1.13A10.45,10.45,0,0,1,209,82.5v3Z" transform="translate(-187 -71)"/><rect x="9" y="24" width="5" height="1"/></svg>