<?xml version="1.0" encoding="utf-8"?><svg viewBox="0 0 37 30" xmlns="http://www.w3.org/2000/svg" xmlns:xlink="http://www.w3.org/1999/xlink"><style>:root>svg{display:none}:root>svg:target{display:block}</style><svg viewBox="0 0 27 30" id="ic_cart" xmlns="http://www.w3.org/2000/svg"><path d="M23.57 8A2.43 2.43 0 0 1 26 10.43v16.14A2.43 2.43 0 0 1 23.57 29H3.43A2.43 2.43 0 0 1 1 26.57V10.43A2.43 2.43 0 0 1 3.43 8h20.14m0-1H3.43A3.44 3.44 0 0 0 0 10.43v16.14A3.44 3.44 0 0 0 3.43 30h20.14A3.44 3.44 0 0 0 27 26.57V10.43A3.44 3.44 0 0 0 23.57 7z"/><path d="M19.83 19H7.17A6.17 6.17 0 0 1 1 13H0a7.19 7.19 0 0 0 7.16 7h12.66A7.19 7.19 0 0 0 27 13h-1a6.17 6.17 0 0 1-6.17 6z"/><path d="M14.06 18a.94.94 0 0 1 .94.94v1.12a.94.94 0 0 1-.94.94h-1.12a.94.94 0 0 1-.94-.94v-1.12a.94.94 0 0 1 .94-.94h1.12m0-1h-1.12A1.94 1.94 0 0 0 11 18.94v1.12A1.94 1.94 0 0 0 12.94 22h1.12A1.94 1.94 0 0 0 16 20.06v-1.12A1.94 1.94 0 0 0 14.06 17z"/><path d="M14.13 1h-1.26A6.88 6.88 0 0 0 6 7.87V8h15v-.13A6.88 6.88 0 0 0 14.13 1z" fill="none"/><path d="M6 7.87A6.88 6.88 0 0 1 12.87 1h1.26A6.88 6.88 0 0 1 21 7.87V8h1v-.13A7.89 7.89 0 0 0 14.13 0h-1.26A7.89 7.89 0 0 0 5 7.87V8h1z"/></svg><svg viewBox="0 0 24 30" id="ic_edit_info" xmlns="http://www.w3.org/2000/svg"><path d="M21.42 1A1.58 1.58 0 0 1 23 2.58v24.84A1.58 1.58 0 0 1 21.42 29H2.58A1.58 1.58 0 0 1 1 27.42V2.58A1.58 1.58 0 0 1 2.58 1h18.84m0-1H2.58A2.59 2.59 0 0 0 0 2.58v24.84A2.59 2.59 0 0 0 2.58 30h18.84A2.59 2.59 0 0 0 24 27.42V2.58A2.59 2.59 0 0 0 21.42 0z"/><path d="M19 13H5v1h14v-1zM19 16H5v1h14v-1zM16 19H5v1h11v-1zM9 22H5v1h4v-1zM18 7v3H6V7h12m1-1H5v5h14V6z"/></svg><svg viewBox="0 0 24 30" id="ic_edit_pass" xmlns="http://www.w3.org/2000/svg"><path d="M21.42 1A1.58 1.58 0 0 1 23 2.58v24.84A1.58 1.58 0 0 1 21.42 29H2.58A1.58 1.58 0 0 1 1 27.42V2.58A1.58 1.58 0 0 1 2.58 1h18.84m0-1H2.58A2.59 2.59 0 0 0 0 2.58v24.84A2.59 2.59 0 0 0 2.58 30h18.84A2.59 2.59 0 0 0 24 27.42V2.58A2.59 2.59 0 0 0 21.42 0z"/><path d="M4 3H3v1h1V3zM21 3h-1v1h1V3zM4 26H3v1h1v-1zM21 26h-1v1h1v-1zM12 13a2 2 0 1 1-2 2 2 2 0 0 1 2-2m0-1a3 3 0 1 0 3 3 3 3 0 0 0-3-3z"/><path d="M12 9a6 6 0 1 0 5.91 7H16v-2h1.91A6 6 0 0 0 12 9z" fill="none"/><path d="M12 21a6 6 0 1 1 5.91-7h1a7 7 0 1 0 0 2h-1A6 6 0 0 1 12 21z"/><path d="M20 14a1 1 0 0 1 0 2h-5v-2h5m0-1h-6v4h6a2 2 0 0 0 0-4z"/></svg><svg viewBox="0 0 27 18" id="ic_email" xmlns="http://www.w3.org/2000/svg"><path d="M25.23 0H1.77A1.78 1.78 0 0 0 0 1.77v14.46A1.78 1.78 0 0 0 1.77 18h23.46A1.78 1.78 0 0 0 27 16.23V1.77A1.78 1.78 0 0 0 25.23 0zm-6.61 9l7.36-7.37V16.2a.8.8 0 0 1 0 .15zm6.61-8l-10 10h-3.75L1.53 1.05A.6.6 0 0 1 1.77 1zM1 16.05V1.94l7.06 7.05zm.51.9L8.76 9.7l2.13 2.13a.5.5 0 0 0 .37.17h4.16a.58.58 0 0 0 .19 0 .52.52 0 0 0 .19-.11l2.11-2.12 7.27 7.27H1.77a.75.75 0 0 1-.26-.04z"/></svg><svg viewBox="0 0 37 18.74" id="ic_favorite" xmlns="http://www.w3.org/2000/svg"><path d="M2.66 1l16.26 4.87H19.21A1.79 1.79 0 0 1 21 7.68v3.38a1.79 1.79 0 0 1-1.79 1.81H18.92L2.66 17.72A1.81 1.81 0 0 1 1 15.95V2.79A1.81 1.81 0 0 1 2.66 1m.13-1A2.8 2.8 0 0 0 0 2.79v13.16a2.8 2.8 0 0 0 2.79 2.79l16.42-4.87A2.8 2.8 0 0 0 22 11.06V7.68a2.8 2.8 0 0 0-2.79-2.81L2.79-.02z"/><path d="M34.34 1A1.81 1.81 0 0 1 36 2.79v13.16a1.81 1.81 0 0 1-1.66 1.79l-16.26-4.87H17.79A1.79 1.79 0 0 1 16 11.06V7.68a1.79 1.79 0 0 1 1.79-1.81H18.08l16.26-4.85m-.13-1L17.79 4.87A2.8 2.8 0 0 0 15 7.68v3.38a2.8 2.8 0 0 0 2.79 2.81l16.42 4.89A2.8 2.8 0 0 0 37 15.95V2.79A2.8 2.8 0 0 0 34.21 0z"/></svg><svg viewBox="0 0 24 30" id="ic_logout" xmlns="http://www.w3.org/2000/svg"><path d="M21.42 1A1.58 1.58 0 0 1 23 2.58v24.84A1.58 1.58 0 0 1 21.42 29H2.58A1.58 1.58 0 0 1 1 27.42V2.58A1.58 1.58 0 0 1 2.58 1h18.84m0-1H2.58A2.59 2.59 0 0 0 0 2.58v24.84A2.59 2.59 0 0 0 2.58 30h18.84A2.59 2.59 0 0 0 24 27.42V2.58A2.59 2.59 0 0 0 21.42 0z"/><path d="M11.7 16a.29.29 0 0 1 .3.3v.4a.29.29 0 0 1-.3.3H8v-1h3.7m0-1H7v3h4.7a1.3 1.3 0 0 0 1.3-1.3v-.4a1.3 1.3 0 0 0-1.3-1.3z"/><path d="M8.83 3H24V2H8.83A1.83 1.83 0 0 0 7 3.83V30h1V3.83A.83.83 0 0 1 8.83 3z"/></svg><svg viewBox="0 0 15 22" id="ic_phone" xmlns="http://www.w3.org/2000/svg"><path d="M12.5 1A1.5 1.5 0 0 1 14 2.5v17a1.5 1.5 0 0 1-1.5 1.5h-10A1.5 1.5 0 0 1 1 19.5v-17A1.5 1.5 0 0 1 2.5 1h10m0-1h-10A2.51 2.51 0 0 0 0 2.5v17A2.51 2.51 0 0 0 2.5 22h10a2.5 2.5 0 0 0 2.5-2.5v-17A2.51 2.51 0 0 0 12.5 0z"/><path d="M9 2H6v1h3V2zM7.5 18a.5.5 0 1 1-.5.5.5.5 0 0 1 .5-.5m0-1A1.5 1.5 0 1 0 9 18.5 1.5 1.5 0 0 0 7.5 17z"/></svg><svg viewBox="0 0 15.2 15.2" id="ic_search" xmlns="http://www.w3.org/2000/svg"><path d="M9.21 1a5 5 0 1 1-5 5 5 5 0 0 1 5-5m0-1a6 6 0 1 0 6 6 6 6 0 0 0-6-6z"/><path fill="none" stroke="#000" stroke-linecap="round" stroke-miterlimit="10" d="M5.24 9.96L.5 14.7"/></svg><svg viewBox="0 0 23 30" id="ic_user" xmlns="http://www.w3.org/2000/svg"><path d="M11.5 0A11.53 11.53 0 0 0 0 11.5v7a11.5 11.5 0 0 0 23 0v-7A11.53 11.53 0 0 0 11.5 0zm0 1a10.49 10.49 0 0 1 8.56 4.44A2.76 2.76 0 0 1 19 6.77c-.79.61-3.75 2.48-8.83 1.14-4.86-1.28-7.77 2.23-9.15 4.64v-1A10.51 10.51 0 0 1 11.5 1zm0 28A10.5 10.5 0 0 1 1 19.25a11.67 11.67 0 0 0 5 5.34c.32.18.66.34 1 .49v-.58a4 4 0 0 1 .05-.5 4.48 4.48 0 0 1 8.9 0 4 4 0 0 1 .05.5v.58c.34-.15.68-.31 1-.49a11.67 11.67 0 0 0 5-5.34A10.5 10.5 0 0 1 11.5 29zM22 14.5a10.5 10.5 0 0 1-5.1 9 5.49 5.49 0 0 0-10.8 0A10.49 10.49 0 0 1 1 14.81c.33-.9 2.93-7.5 8.87-5.93 5.53 1.45 8.82-.64 9.7-1.32a5.05 5.05 0 0 0 1.1-1.13A10.45 10.45 0 0 1 22 11.5v3z"/><path d="M9 24h5v1H9z"/></svg></svg>